<svg height="512pt" viewBox="0 0 512.0006 512" width="512pt" xmlns="http://www.w3.org/2000/svg"><path d="m255.261719 512c-.101563 0-.195313 0-.296875 0-.945313-.003906-1.894532-.011719-2.84375-.027344-67.851563-1.007812-131.316406-28.0625-178.691406-76.183594-47.371094-48.117187-73.4492192-111.996093-73.429688-179.867187.0195312-68.351563 26.648438-132.609375 74.980469-180.941406s112.589843-74.9609378 180.941406-74.980469h.078125c67.847656 0 131.691406 26.074219 179.785156 73.429688 48.125 47.375 75.179688 110.839843 76.1875 178.695312.015625.941406.023438 1.890625.027344 2.835938.085938 21.714843-9.308594 42.234374-25.769531 56.296874-16.660157 14.234376-38.722657 20.375-60.515625 16.84375-5.195313-.84375-10.53125-1.207031-15.855469-1.074218-21.765625.53125-42.320313 9.394531-57.878906 24.953125-15.558594 15.5625-24.421875 36.117187-24.953125 57.878906-.132813 5.328125.230468 10.660156 1.070312 15.855469 3.535156 21.796875-2.605468 43.855468-16.839844 60.515625-14 16.386719-34.398437 25.769531-55.996093 25.769531zm0 0" fill="#d9e7f3"/><path d="m511.972656 252.125c-1.007812-67.855469-28.0625-131.320312-76.1875-178.695312-48.097656-47.355469-111.9375-73.429688-179.785156-73.429688v511.980469c21.324219-.210938 41.417969-9.550781 55.257812-25.75 14.234376-16.660157 20.375-38.71875 16.84375-60.515625-.84375-5.195313-1.203124-10.527344-1.074218-15.855469.53125-21.761719 9.394531-42.316406 24.953125-57.878906 15.558593-15.558594 36.117187-24.421875 57.878906-24.953125 5.324219-.132813 10.660156.230468 15.859375 1.074218 21.789062 3.53125 43.851562-2.609374 60.515625-16.84375 16.460937-14.0625 25.851563-34.582031 25.765625-56.296874-.003906-.945313-.015625-1.894532-.027344-2.835938zm0 0" fill="#c8d4df"/><path d="m243.597656 117.417969c0 24.851562-20.144531 45-45 45-24.851562 0-45-20.148438-45-45 0-24.851563 20.148438-45 45-45 24.855469 0 45 20.148437 45 45zm0 0" fill="#9c00ae"/><path d="m162.417969 198.597656c0 24.855469-20.148438 45-45 45-24.851563 0-45-20.144531-45-45 0-24.851562 20.148437-45 45-45 24.851562 0 45 20.148438 45 45zm0 0" fill="#006eff"/><path d="m439.582031 198.597656c0 24.855469-20.144531 45-45 45-24.851562 0-45-20.144531-45-45 0-24.851562 20.148438-45 45-45 24.855469 0 45 20.148438 45 45zm0 0" fill="#ffd500"/><path d="m162.417969 313.402344c0 24.855468-20.148438 45-45 45-24.851563 0-45-20.144532-45-45 0-24.851563 20.148437-45 45-45 24.851562 0 45 20.148437 45 45zm0 0" fill="#ffa300"/><path d="m358.402344 117.417969c0 24.851562-20.144532 45-45 45-24.851563 0-45-20.148438-45-45 0-24.851563 20.148437-45 45-45 24.855468 0 45 20.148437 45 45zm0 0" fill="#2db124"/><path d="m243.597656 394.582031c0 24.855469-20.144531 45-45 45-24.851562 0-45-20.144531-45-45 0-24.851562 20.148438-45 45-45 24.855469 0 45 20.148438 45 45zm0 0" fill="#ff0075"/></svg>